<svg xmlns="http://www.w3.org/2000/svg" xmlns:xlink="http://www.w3.org/1999/xlink" width="500" zoomAndPan="magnify" viewBox="0 0 375 74.999997" height="100" preserveAspectRatio="xMidYMid meet" version="1.0"><defs><g/><clipPath id="4cb55fdb47"><path d="M 84 12 L 121.671875 12 L 121.671875 72 L 84 72 Z M 84 12 " clip-rule="nonzero"/></clipPath><clipPath id="474aa9d7ed"><path d="M 52 2.34375 L 117 2.34375 L 117 36 L 52 36 Z M 52 2.34375 " clip-rule="nonzero"/></clipPath></defs><path fill="#15488a" d="M 57.480469 55.824219 C 56.460938 55.824219 55.566406 55.078125 55.410156 54.046875 C 55.234375 52.90625 56.019531 51.835938 57.167969 51.660156 L 65.828125 50.335938 C 66.976562 50.160156 68.042969 50.945312 68.214844 52.09375 C 68.390625 53.238281 67.605469 54.308594 66.457031 54.480469 L 57.804688 55.800781 C 57.695312 55.820312 57.589844 55.824219 57.480469 55.824219 Z M 57.480469 55.824219 " fill-opacity="1" fill-rule="nonzero"/><path fill="#15488a" d="M 32.574219 59.632812 C 31.554688 59.632812 30.660156 58.886719 30.503906 57.855469 C 30.332031 56.714844 31.113281 55.644531 32.261719 55.46875 L 50.675781 52.652344 C 51.816406 52.476562 52.886719 53.261719 53.0625 54.410156 C 53.238281 55.550781 52.453125 56.625 51.304688 56.796875 L 32.894531 59.613281 C 32.789062 59.621094 32.683594 59.632812 32.574219 59.632812 Z M 32.574219 59.632812 " fill-opacity="1" fill-rule="nonzero"/><path fill="#15488a" d="M 19.445312 61.636719 C 18.425781 61.636719 17.53125 60.890625 17.375 59.859375 C 17.199219 58.71875 17.984375 57.648438 19.132812 57.472656 L 23.0625 56.871094 C 24.207031 56.695312 25.277344 57.480469 25.453125 58.628906 C 25.625 59.769531 24.84375 60.839844 23.695312 61.015625 L 19.761719 61.617188 C 19.652344 61.632812 19.546875 61.636719 19.445312 61.636719 Z M 19.445312 61.636719 " fill-opacity="1" fill-rule="nonzero"/><path fill="#15488a" d="M 22.175781 53.164062 C 21.15625 53.164062 20.261719 52.417969 20.105469 51.386719 C 19.929688 50.246094 20.714844 49.175781 21.863281 49 L 57.207031 43.601562 C 58.355469 43.429688 59.417969 44.210938 59.59375 45.359375 C 59.769531 46.503906 58.984375 47.574219 57.835938 47.75 L 22.492188 53.140625 C 22.382812 53.160156 22.28125 53.164062 22.175781 53.164062 Z M 22.175781 53.164062 " fill-opacity="1" fill-rule="nonzero"/><path fill="#15488a" d="M 15.320312 46.222656 C 14.300781 46.222656 13.40625 45.476562 13.25 44.445312 C 13.074219 43.304688 13.859375 42.234375 15.007812 42.058594 L 41.242188 38.050781 C 42.382812 37.875 43.453125 38.660156 43.628906 39.808594 C 43.804688 40.949219 43.019531 42.019531 41.871094 42.195312 L 15.636719 46.199219 C 15.53125 46.210938 15.421875 46.222656 15.320312 46.222656 Z M 15.320312 46.222656 " fill-opacity="1" fill-rule="nonzero"/><path fill="#15488a" d="M 6.210938 47.613281 C 5.191406 47.613281 4.296875 46.867188 4.140625 45.835938 C 3.964844 44.691406 4.75 43.621094 5.898438 43.449219 L 7.890625 43.140625 C 9.039062 42.960938 10.101562 43.753906 10.277344 44.902344 C 10.453125 46.042969 9.667969 47.113281 8.519531 47.289062 L 6.527344 47.59375 C 6.425781 47.605469 6.3125 47.613281 6.210938 47.613281 Z M 6.210938 47.613281 " fill-opacity="1" fill-rule="nonzero"/><path fill="#15488a" d="M 50.179688 40.898438 C 49.164062 40.898438 48.269531 40.152344 48.113281 39.121094 C 47.9375 37.976562 48.722656 36.90625 49.871094 36.734375 L 54.398438 36.039062 C 55.546875 35.863281 56.609375 36.648438 56.785156 37.796875 C 56.960938 38.9375 56.175781 40.007812 55.027344 40.183594 L 50.5 40.878906 C 50.394531 40.882812 50.292969 40.898438 50.179688 40.898438 Z M 50.179688 40.898438 " fill-opacity="1" fill-rule="nonzero"/><path fill="#15488a" d="M 32.054688 36.523438 C 31.039062 36.523438 30.140625 35.777344 29.988281 34.746094 C 29.8125 33.605469 30.597656 32.535156 31.746094 32.359375 L 58.039062 28.34375 C 59.179688 28.167969 60.25 28.953125 60.425781 30.101562 C 60.601562 31.246094 59.816406 32.316406 58.667969 32.488281 L 32.375 36.503906 C 32.261719 36.519531 32.160156 36.523438 32.054688 36.523438 Z M 32.054688 36.523438 " fill-opacity="1" fill-rule="nonzero"/><path fill="#15488a" d="M 92.136719 71.960938 C 91.921875 71.960938 91.714844 71.925781 91.507812 71.863281 L 59.648438 61.84375 C 58.542969 61.496094 57.925781 60.320312 58.277344 59.21875 C 58.628906 58.113281 59.796875 57.5 60.90625 57.847656 L 89.566406 66.859375 L 84.824219 35.242188 L 54.210938 25.613281 C 53.105469 25.261719 52.492188 24.089844 52.839844 22.984375 C 53.191406 21.882812 54.359375 21.265625 55.46875 21.617188 L 87.328125 31.632812 C 88.09375 31.875 88.652344 32.527344 88.773438 33.320312 L 94.210938 69.550781 C 94.320312 70.265625 94.050781 70.984375 93.496094 71.460938 C 93.113281 71.785156 92.628906 71.960938 92.136719 71.960938 Z M 92.136719 71.960938 " fill-opacity="1" fill-rule="nonzero"/><g clip-path="url(#4cb55fdb47)"><path fill="#15488a" d="M 92.136719 71.960938 C 91.855469 71.960938 91.570312 71.902344 91.304688 71.789062 C 90.636719 71.503906 90.167969 70.894531 90.058594 70.175781 L 84.621094 33.941406 C 84.507812 33.160156 84.84375 32.367188 85.492188 31.914062 L 112.71875 12.871094 C 113.316406 12.457031 114.082031 12.378906 114.75 12.664062 C 115.417969 12.949219 115.886719 13.558594 115.996094 14.28125 L 121.433594 50.511719 C 121.550781 51.296875 121.210938 52.089844 120.5625 52.542969 L 93.335938 71.582031 C 92.984375 71.828125 92.5625 71.960938 92.136719 71.960938 Z M 88.96875 34.605469 L 93.710938 66.203125 L 117.097656 49.84375 L 112.355469 18.242188 Z M 88.96875 34.605469 " fill-opacity="1" fill-rule="nonzero"/></g><g clip-path="url(#474aa9d7ed)"><path fill="#15488a" d="M 86.699219 35.726562 C 86.484375 35.726562 86.277344 35.695312 86.070312 35.628906 L 54.210938 25.613281 C 53.449219 25.375 52.886719 24.726562 52.769531 23.933594 C 52.648438 23.140625 52.984375 22.351562 53.640625 21.894531 L 80.859375 2.847656 C 81.390625 2.480469 82.066406 2.375 82.691406 2.570312 L 114.554688 12.585938 C 115.316406 12.828125 115.878906 13.476562 115.996094 14.265625 C 116.117188 15.058594 115.78125 15.851562 115.125 16.304688 L 87.898438 35.34375 C 87.546875 35.597656 87.128906 35.726562 86.699219 35.726562 Z M 59.53125 22.890625 L 86.34375 31.316406 L 109.230469 15.304688 L 82.417969 6.878906 Z M 59.53125 22.890625 " fill-opacity="1" fill-rule="nonzero"/></g><g fill="#ffffff" fill-opacity="1"><g transform="translate(132.588494, 51.358622)"><g><path d="M 8.546875 -20.703125 L 8.546875 -15.5 L 16.9375 -15.5 L 16.9375 -10.671875 L 8.546875 -10.671875 L 8.546875 -5.015625 L 18.03125 -5.015625 L 18.03125 0 L 2.265625 0 L 2.265625 -25.734375 L 18.03125 -25.734375 L 18.03125 -20.703125 Z M 8.546875 -20.703125 "/></g></g></g><g fill="#ffffff" fill-opacity="1"><g transform="translate(153.153695, 51.358622)"><g><path d="M 10.59375 0.296875 C 8.8125 0.296875 7.222656 -0.0078125 5.828125 -0.625 C 4.429688 -1.238281 3.328125 -2.078125 2.515625 -3.140625 C 1.710938 -4.203125 1.265625 -5.390625 1.171875 -6.703125 L 7.375 -6.703125 C 7.445312 -5.992188 7.773438 -5.421875 8.359375 -4.984375 C 8.941406 -4.546875 9.660156 -4.328125 10.515625 -4.328125 C 11.296875 -4.328125 11.898438 -4.476562 12.328125 -4.78125 C 12.753906 -5.082031 12.96875 -5.476562 12.96875 -5.96875 C 12.96875 -6.5625 12.660156 -7 12.046875 -7.28125 C 11.441406 -7.5625 10.457031 -7.875 9.09375 -8.21875 C 7.625 -8.550781 6.398438 -8.90625 5.421875 -9.28125 C 4.441406 -9.664062 3.597656 -10.265625 2.890625 -11.078125 C 2.179688 -11.898438 1.828125 -13.007812 1.828125 -14.40625 C 1.828125 -15.582031 2.148438 -16.648438 2.796875 -17.609375 C 3.453125 -18.578125 4.40625 -19.34375 5.65625 -19.90625 C 6.914062 -20.46875 8.414062 -20.75 10.15625 -20.75 C 12.71875 -20.75 14.738281 -20.113281 16.21875 -18.84375 C 17.695312 -17.570312 18.546875 -15.882812 18.765625 -13.78125 L 12.96875 -13.78125 C 12.875 -14.488281 12.5625 -15.050781 12.03125 -15.46875 C 11.507812 -15.882812 10.820312 -16.09375 9.96875 -16.09375 C 9.238281 -16.09375 8.675781 -15.953125 8.28125 -15.671875 C 7.894531 -15.390625 7.703125 -15.003906 7.703125 -14.515625 C 7.703125 -13.929688 8.007812 -13.488281 8.625 -13.1875 C 9.25 -12.894531 10.222656 -12.601562 11.546875 -12.3125 C 13.054688 -11.925781 14.285156 -11.539062 15.234375 -11.15625 C 16.191406 -10.78125 17.03125 -10.171875 17.75 -9.328125 C 18.476562 -8.484375 18.851562 -7.351562 18.875 -5.9375 C 18.875 -4.738281 18.535156 -3.664062 17.859375 -2.71875 C 17.191406 -1.78125 16.226562 -1.039062 14.96875 -0.5 C 13.71875 0.03125 12.257812 0.296875 10.59375 0.296875 Z M 10.59375 0.296875 "/></g></g></g><g fill="#ffffff" fill-opacity="1"><g transform="translate(174.342083, 51.358622)"><g><path d="M 13.671875 -5.3125 L 13.671875 0 L 10.484375 0 C 8.210938 0 6.441406 -0.550781 5.171875 -1.65625 C 3.898438 -2.769531 3.265625 -4.585938 3.265625 -7.109375 L 3.265625 -15.25 L 0.765625 -15.25 L 0.765625 -20.453125 L 3.265625 -20.453125 L 3.265625 -25.4375 L 9.53125 -25.4375 L 9.53125 -20.453125 L 13.640625 -20.453125 L 13.640625 -15.25 L 9.53125 -15.25 L 9.53125 -7.03125 C 9.53125 -6.425781 9.675781 -5.988281 9.96875 -5.71875 C 10.257812 -5.445312 10.75 -5.3125 11.4375 -5.3125 Z M 13.671875 -5.3125 "/></g></g></g><g fill="#ffffff" fill-opacity="1"><g transform="translate(189.958479, 51.358622)"><g><path d="M 11.578125 0.296875 C 9.578125 0.296875 7.773438 -0.128906 6.171875 -0.984375 C 4.578125 -1.835938 3.320312 -3.054688 2.40625 -4.640625 C 1.488281 -6.234375 1.03125 -8.097656 1.03125 -10.234375 C 1.03125 -12.328125 1.492188 -14.175781 2.421875 -15.78125 C 3.347656 -17.382812 4.617188 -18.613281 6.234375 -19.46875 C 7.847656 -20.320312 9.65625 -20.75 11.65625 -20.75 C 13.65625 -20.75 15.460938 -20.320312 17.078125 -19.46875 C 18.691406 -18.613281 19.960938 -17.382812 20.890625 -15.78125 C 21.816406 -14.175781 22.28125 -12.328125 22.28125 -10.234375 C 22.28125 -8.128906 21.8125 -6.273438 20.875 -4.671875 C 19.9375 -3.066406 18.65625 -1.835938 17.03125 -0.984375 C 15.40625 -0.128906 13.585938 0.296875 11.578125 0.296875 Z M 11.578125 -5.125 C 12.773438 -5.125 13.796875 -5.5625 14.640625 -6.4375 C 15.484375 -7.320312 15.90625 -8.585938 15.90625 -10.234375 C 15.90625 -11.867188 15.492188 -13.125 14.671875 -14 C 13.859375 -14.882812 12.851562 -15.328125 11.65625 -15.328125 C 10.4375 -15.328125 9.421875 -14.890625 8.609375 -14.015625 C 7.804688 -13.148438 7.40625 -11.890625 7.40625 -10.234375 C 7.40625 -8.585938 7.800781 -7.320312 8.59375 -6.4375 C 9.382812 -5.5625 10.378906 -5.125 11.578125 -5.125 Z M 11.578125 -5.125 "/></g></g></g><g fill="#ffffff" fill-opacity="1"><g transform="translate(214.04282, 51.358622)"><g><path d="M 1.03125 -10.1875 C 1.03125 -12.21875 1.453125 -14.023438 2.296875 -15.609375 C 3.140625 -17.203125 4.273438 -18.441406 5.703125 -19.328125 C 7.128906 -20.222656 8.6875 -20.671875 10.375 -20.671875 C 11.664062 -20.671875 12.820312 -20.441406 13.84375 -19.984375 C 14.875 -19.535156 15.707031 -18.910156 16.34375 -18.109375 L 16.34375 -20.453125 L 22.609375 -20.453125 L 22.609375 9.75 L 16.34375 9.75 L 16.34375 -2.5625 C 15.632812 -1.707031 14.773438 -1.023438 13.765625 -0.515625 C 12.753906 -0.00390625 11.597656 0.25 10.296875 0.25 C 8.640625 0.25 7.101562 -0.1875 5.6875 -1.0625 C 4.269531 -1.9375 3.140625 -3.164062 2.296875 -4.75 C 1.453125 -6.34375 1.03125 -8.15625 1.03125 -10.1875 Z M 16.34375 -10.234375 C 16.34375 -11.328125 16.128906 -12.242188 15.703125 -12.984375 C 15.273438 -13.734375 14.71875 -14.296875 14.03125 -14.671875 C 13.351562 -15.054688 12.632812 -15.25 11.875 -15.25 C 11.144531 -15.25 10.4375 -15.054688 9.75 -14.671875 C 9.0625 -14.296875 8.5 -13.726562 8.0625 -12.96875 C 7.625 -12.21875 7.40625 -11.289062 7.40625 -10.1875 C 7.40625 -9.09375 7.625 -8.171875 8.0625 -7.421875 C 8.5 -6.679688 9.0625 -6.117188 9.75 -5.734375 C 10.4375 -5.359375 11.144531 -5.171875 11.875 -5.171875 C 12.601562 -5.171875 13.316406 -5.359375 14.015625 -5.734375 C 14.710938 -6.117188 15.273438 -6.6875 15.703125 -7.4375 C 16.128906 -8.195312 16.34375 -9.128906 16.34375 -10.234375 Z M 16.34375 -10.234375 "/></g></g></g><g fill="#ffffff" fill-opacity="1"><g transform="translate(239.666793, 51.358622)"><g><path d="M 22.46875 -20.453125 L 22.46875 0 L 16.203125 0 L 16.203125 -2.78125 C 15.566406 -1.875 14.703125 -1.144531 13.609375 -0.59375 C 12.523438 -0.0507812 11.320312 0.21875 10 0.21875 C 8.4375 0.21875 7.054688 -0.128906 5.859375 -0.828125 C 4.660156 -1.523438 3.734375 -2.53125 3.078125 -3.84375 C 2.421875 -5.164062 2.09375 -6.71875 2.09375 -8.5 L 2.09375 -20.453125 L 8.328125 -20.453125 L 8.328125 -9.34375 C 8.328125 -7.976562 8.679688 -6.914062 9.390625 -6.15625 C 10.097656 -5.394531 11.050781 -5.015625 12.25 -5.015625 C 13.46875 -5.015625 14.429688 -5.394531 15.140625 -6.15625 C 15.847656 -6.914062 16.203125 -7.976562 16.203125 -9.34375 L 16.203125 -20.453125 Z M 22.46875 -20.453125 "/></g></g></g><g fill="#ffffff" fill-opacity="1"><g transform="translate(265.107492, 51.358622)"><g><path d="M 21.546875 -10.5625 C 21.546875 -9.96875 21.507812 -9.351562 21.4375 -8.71875 L 7.265625 -8.71875 C 7.359375 -7.445312 7.765625 -6.472656 8.484375 -5.796875 C 9.203125 -5.128906 10.085938 -4.796875 11.140625 -4.796875 C 12.703125 -4.796875 13.789062 -5.457031 14.40625 -6.78125 L 21.078125 -6.78125 C 20.734375 -5.4375 20.113281 -4.226562 19.21875 -3.15625 C 18.332031 -2.082031 17.21875 -1.238281 15.875 -0.625 C 14.53125 -0.0078125 13.023438 0.296875 11.359375 0.296875 C 9.359375 0.296875 7.578125 -0.128906 6.015625 -0.984375 C 4.453125 -1.835938 3.226562 -3.054688 2.34375 -4.640625 C 1.46875 -6.234375 1.03125 -8.097656 1.03125 -10.234375 C 1.03125 -12.359375 1.460938 -14.210938 2.328125 -15.796875 C 3.191406 -17.390625 4.40625 -18.613281 5.96875 -19.46875 C 7.539062 -20.320312 9.335938 -20.75 11.359375 -20.75 C 13.335938 -20.75 15.097656 -20.332031 16.640625 -19.5 C 18.179688 -18.664062 19.382812 -17.476562 20.25 -15.9375 C 21.113281 -14.40625 21.546875 -12.613281 21.546875 -10.5625 Z M 15.140625 -12.203125 C 15.140625 -13.273438 14.769531 -14.128906 14.03125 -14.765625 C 13.300781 -15.398438 12.390625 -15.71875 11.296875 -15.71875 C 10.242188 -15.71875 9.351562 -15.410156 8.625 -14.796875 C 7.90625 -14.191406 7.460938 -13.328125 7.296875 -12.203125 Z M 15.140625 -12.203125 "/></g></g></g><g fill="#ffffff" fill-opacity="1"><g transform="translate(288.422031, 51.358622)"><g><path d="M 19.03125 -25.734375 L 19.03125 -20.703125 L 8.546875 -20.703125 L 8.546875 -15.28125 L 16.390625 -15.28125 L 16.390625 -10.40625 L 8.546875 -10.40625 L 8.546875 0 L 2.265625 0 L 2.265625 -25.734375 Z M 19.03125 -25.734375 "/></g></g></g><g fill="#ffffff" fill-opacity="1"><g transform="translate(309.207176, 51.358622)"><g><path d="M 8.546875 -27.125 L 8.546875 0 L 2.265625 0 L 2.265625 -27.125 Z M 8.546875 -27.125 "/></g></g></g><g fill="#ffffff" fill-opacity="1"><g transform="translate(320.754558, 51.358622)"><g><path d="M 21.546875 -10.5625 C 21.546875 -9.96875 21.507812 -9.351562 21.4375 -8.71875 L 7.265625 -8.71875 C 7.359375 -7.445312 7.765625 -6.472656 8.484375 -5.796875 C 9.203125 -5.128906 10.085938 -4.796875 11.140625 -4.796875 C 12.703125 -4.796875 13.789062 -5.457031 14.40625 -6.78125 L 21.078125 -6.78125 C 20.734375 -5.4375 20.113281 -4.226562 19.21875 -3.15625 C 18.332031 -2.082031 17.21875 -1.238281 15.875 -0.625 C 14.53125 -0.0078125 13.023438 0.296875 11.359375 0.296875 C 9.359375 0.296875 7.578125 -0.128906 6.015625 -0.984375 C 4.453125 -1.835938 3.226562 -3.054688 2.34375 -4.640625 C 1.46875 -6.234375 1.03125 -8.097656 1.03125 -10.234375 C 1.03125 -12.359375 1.460938 -14.210938 2.328125 -15.796875 C 3.191406 -17.390625 4.40625 -18.613281 5.96875 -19.46875 C 7.539062 -20.320312 9.335938 -20.75 11.359375 -20.75 C 13.335938 -20.75 15.097656 -20.332031 16.640625 -19.5 C 18.179688 -18.664062 19.382812 -17.476562 20.25 -15.9375 C 21.113281 -14.40625 21.546875 -12.613281 21.546875 -10.5625 Z M 15.140625 -12.203125 C 15.140625 -13.273438 14.769531 -14.128906 14.03125 -14.765625 C 13.300781 -15.398438 12.390625 -15.71875 11.296875 -15.71875 C 10.242188 -15.71875 9.351562 -15.410156 8.625 -14.796875 C 7.90625 -14.191406 7.460938 -13.328125 7.296875 -12.203125 Z M 15.140625 -12.203125 "/></g></g></g><g fill="#ffffff" fill-opacity="1"><g transform="translate(344.069097, 51.358622)"><g><path d="M 14.375 0 L 10.453125 -5.6875 L 7.140625 0 L 0.359375 0 L 7.109375 -10.453125 L 0.1875 -20.453125 L 7.21875 -20.453125 L 11.140625 -14.8125 L 14.4375 -20.453125 L 21.21875 -20.453125 L 14.375 -10.15625 L 21.40625 0 Z M 14.375 0 "/></g></g></g></svg>