<svg xmlns="http://www.w3.org/2000/svg" xmlns:xlink="http://www.w3.org/1999/xlink" width="500" zoomAndPan="magnify" viewBox="0 0 375 225" height="300" preserveAspectRatio="xMidYMid meet" version="1.0"><defs><g/><clipPath id="24ac4e830d"><path d="M 70.640625 78 L 83 78 L 83 87 L 70.640625 87 Z M 70.640625 78 " clip-rule="nonzero"/></clipPath><clipPath id="bbe8c55280"><path d="M 159 39 L 235 39 L 235 130.453125 L 159 130.453125 Z M 159 39 " clip-rule="nonzero"/></clipPath><clipPath id="30cc6f2684"><path d="M 217 22 L 284 22 L 284 130.453125 L 217 130.453125 Z M 217 22 " clip-rule="nonzero"/></clipPath><clipPath id="fc90eeb93b"><path d="M 159 4.453125 L 275 4.453125 L 275 66 L 159 66 Z M 159 4.453125 " clip-rule="nonzero"/></clipPath></defs><path fill="#15488a" d="M 167.808594 101.492188 C 165.960938 101.492188 164.335938 100.140625 164.054688 98.269531 C 163.734375 96.195312 165.160156 94.253906 167.242188 93.9375 L 182.957031 91.535156 C 185.042969 91.21875 186.972656 92.640625 187.289062 94.726562 C 187.609375 96.796875 186.183594 98.738281 184.101562 99.058594 L 168.398438 101.445312 C 168.199219 101.480469 168.007812 101.492188 167.808594 101.492188 Z M 167.808594 101.492188 " fill-opacity="1" fill-rule="nonzero"/><path fill="#15488a" d="M 122.621094 108.402344 C 120.769531 108.402344 119.148438 107.050781 118.863281 105.179688 C 118.546875 103.105469 119.972656 101.164062 122.054688 100.847656 L 155.460938 95.738281 C 157.53125 95.421875 159.476562 96.84375 159.792969 98.929688 C 160.109375 101 158.6875 102.941406 156.601562 103.257812 L 123.195312 108.367188 C 123.007812 108.378906 122.820312 108.402344 122.621094 108.402344 Z M 122.621094 108.402344 " fill-opacity="1" fill-rule="nonzero"/><path fill="#15488a" d="M 98.792969 112.039062 C 96.945312 112.039062 95.320312 110.6875 95.039062 108.816406 C 94.722656 106.742188 96.144531 104.800781 98.230469 104.484375 L 105.363281 103.390625 C 107.433594 103.070312 109.375 104.496094 109.695312 106.578125 C 110.011719 108.652344 108.589844 110.59375 106.503906 110.910156 L 99.371094 112.003906 C 99.171875 112.027344 98.984375 112.039062 98.792969 112.039062 Z M 98.792969 112.039062 " fill-opacity="1" fill-rule="nonzero"/><path fill="#15488a" d="M 103.75 96.667969 C 101.902344 96.667969 100.277344 95.3125 99.996094 93.441406 C 99.675781 91.371094 101.101562 89.429688 103.183594 89.109375 L 167.3125 79.316406 C 169.398438 79 171.328125 80.421875 171.644531 82.507812 C 171.964844 84.578125 170.539062 86.519531 168.457031 86.839844 L 104.328125 96.621094 C 104.125 96.65625 103.9375 96.667969 103.75 96.667969 Z M 103.75 96.667969 " fill-opacity="1" fill-rule="nonzero"/><path fill="#15488a" d="M 91.308594 84.074219 C 89.460938 84.074219 87.835938 82.71875 87.554688 80.847656 C 87.234375 78.777344 88.660156 76.832031 90.742188 76.515625 L 138.34375 69.242188 C 140.417969 68.921875 142.359375 70.347656 142.675781 72.429688 C 142.996094 74.503906 141.570312 76.445312 139.488281 76.761719 L 91.886719 84.027344 C 91.695312 84.050781 91.496094 84.074219 91.308594 84.074219 Z M 91.308594 84.074219 " fill-opacity="1" fill-rule="nonzero"/><g clip-path="url(#24ac4e830d)"><path fill="#15488a" d="M 74.78125 86.589844 C 72.933594 86.589844 71.308594 85.238281 71.027344 83.367188 C 70.707031 81.292969 72.132812 79.351562 74.214844 79.035156 L 77.828125 78.480469 C 79.914062 78.152344 81.84375 79.585938 82.160156 81.671875 C 82.480469 83.742188 81.054688 85.683594 78.972656 86.003906 L 75.359375 86.554688 C 75.167969 86.578125 74.96875 86.589844 74.78125 86.589844 Z M 74.78125 86.589844 " fill-opacity="1" fill-rule="nonzero"/></g><path fill="#15488a" d="M 154.566406 74.410156 C 152.71875 74.410156 151.09375 73.054688 150.8125 71.183594 C 150.492188 69.113281 151.917969 67.167969 154 66.851562 L 162.21875 65.59375 C 164.300781 65.273438 166.230469 66.699219 166.550781 68.78125 C 166.867188 70.855469 165.441406 72.796875 163.359375 73.113281 L 155.144531 74.375 C 154.953125 74.386719 154.765625 74.410156 154.566406 74.410156 Z M 154.566406 74.410156 " fill-opacity="1" fill-rule="nonzero"/><path fill="#15488a" d="M 121.675781 66.476562 C 119.828125 66.476562 118.207031 65.121094 117.921875 63.25 C 117.605469 61.175781 119.027344 59.234375 121.113281 58.917969 L 168.820312 51.632812 C 170.894531 51.3125 172.835938 52.738281 173.152344 54.820312 C 173.472656 56.894531 172.046875 58.835938 169.964844 59.152344 L 122.253906 66.4375 C 122.054688 66.464844 121.867188 66.476562 121.675781 66.476562 Z M 121.675781 66.476562 " fill-opacity="1" fill-rule="nonzero"/><g clip-path="url(#bbe8c55280)"><path fill="#15488a" d="M 230.691406 130.769531 C 230.300781 130.769531 229.925781 130.710938 229.546875 130.59375 L 171.742188 112.417969 C 169.738281 111.78125 168.621094 109.652344 169.257812 107.648438 C 169.890625 105.648438 172.011719 104.53125 174.023438 105.167969 L 226.027344 121.515625 L 217.425781 64.144531 L 161.875 46.675781 C 159.875 46.039062 158.757812 43.910156 159.390625 41.910156 C 160.027344 39.90625 162.148438 38.789062 164.160156 39.425781 L 221.96875 57.597656 C 223.355469 58.035156 224.371094 59.222656 224.59375 60.660156 L 234.457031 126.402344 C 234.65625 127.695312 234.164062 129.003906 233.164062 129.863281 C 232.46875 130.449219 231.585938 130.769531 230.691406 130.769531 Z M 230.691406 130.769531 " fill-opacity="1" fill-rule="nonzero"/></g><g clip-path="url(#30cc6f2684)"><path fill="#15488a" d="M 230.691406 130.769531 C 230.183594 130.769531 229.667969 130.664062 229.183594 130.460938 C 227.972656 129.945312 227.125 128.839844 226.921875 127.53125 L 217.058594 61.789062 C 216.847656 60.367188 217.460938 58.929688 218.636719 58.105469 L 268.039062 23.558594 C 269.125 22.804688 270.511719 22.664062 271.726562 23.179688 C 272.9375 23.699219 273.785156 24.804688 273.984375 26.109375 L 283.847656 91.851562 C 284.0625 93.277344 283.449219 94.714844 282.273438 95.539062 L 232.867188 130.085938 C 232.234375 130.535156 231.46875 130.769531 230.691406 130.769531 Z M 224.945312 62.992188 L 233.550781 120.328125 L 275.984375 90.640625 L 267.382812 33.304688 Z M 224.945312 62.992188 " fill-opacity="1" fill-rule="nonzero"/></g><g clip-path="url(#fc90eeb93b)"><path fill="#15488a" d="M 220.828125 65.027344 C 220.4375 65.027344 220.0625 64.96875 219.683594 64.851562 L 161.875 46.675781 C 160.5 46.238281 159.476562 45.0625 159.261719 43.625 C 159.039062 42.191406 159.652344 40.753906 160.839844 39.929688 L 210.230469 5.371094 C 211.199219 4.699219 212.421875 4.511719 213.550781 4.863281 L 271.371094 23.039062 C 272.75 23.472656 273.773438 24.652344 273.984375 26.085938 C 274.207031 27.523438 273.597656 28.960938 272.40625 29.785156 L 223.003906 64.332031 C 222.367188 64.792969 221.601562 65.027344 220.828125 65.027344 Z M 171.527344 41.730469 L 220.179688 57.023438 L 261.707031 27.972656 L 213.058594 12.679688 Z M 171.527344 41.730469 " fill-opacity="1" fill-rule="nonzero"/></g><g fill="#0f0147" fill-opacity="1"><g transform="translate(42.663767, 176.491735)"><g><path d="M 10.609375 -25.75 L 10.609375 -19.265625 L 21.046875 -19.265625 L 21.046875 -13.265625 L 10.609375 -13.265625 L 10.609375 -6.234375 L 22.421875 -6.234375 L 22.421875 0 L 2.828125 0 L 2.828125 -31.984375 L 22.421875 -31.984375 L 22.421875 -25.75 Z M 10.609375 -25.75 "/></g></g></g><g fill="#0f0147" fill-opacity="1"><g transform="translate(68.224594, 176.491735)"><g><path d="M 13.171875 0.359375 C 10.953125 0.359375 8.972656 -0.015625 7.234375 -0.765625 C 5.503906 -1.523438 4.140625 -2.566406 3.140625 -3.890625 C 2.140625 -5.210938 1.578125 -6.695312 1.453125 -8.34375 L 9.15625 -8.34375 C 9.25 -7.457031 9.660156 -6.738281 10.390625 -6.1875 C 11.117188 -5.644531 12.015625 -5.375 13.078125 -5.375 C 14.046875 -5.375 14.796875 -5.5625 15.328125 -5.9375 C 15.859375 -6.320312 16.125 -6.816406 16.125 -7.421875 C 16.125 -8.148438 15.742188 -8.6875 14.984375 -9.03125 C 14.222656 -9.382812 12.992188 -9.773438 11.296875 -10.203125 C 9.472656 -10.628906 7.953125 -11.078125 6.734375 -11.546875 C 5.523438 -12.015625 4.476562 -12.757812 3.59375 -13.78125 C 2.71875 -14.800781 2.28125 -16.175781 2.28125 -17.90625 C 2.28125 -19.363281 2.679688 -20.691406 3.484375 -21.890625 C 4.285156 -23.085938 5.46875 -24.035156 7.03125 -24.734375 C 8.601562 -25.429688 10.46875 -25.78125 12.625 -25.78125 C 15.8125 -25.78125 18.320312 -24.988281 20.15625 -23.40625 C 22 -21.832031 23.054688 -19.738281 23.328125 -17.125 L 16.125 -17.125 C 16.007812 -18.007812 15.625 -18.707031 14.96875 -19.21875 C 14.3125 -19.738281 13.453125 -20 12.390625 -20 C 11.484375 -20 10.785156 -19.820312 10.296875 -19.46875 C 9.804688 -19.125 9.5625 -18.648438 9.5625 -18.046875 C 9.5625 -17.316406 9.945312 -16.769531 10.71875 -16.40625 C 11.5 -16.039062 12.710938 -15.675781 14.359375 -15.3125 C 16.234375 -14.820312 17.765625 -14.34375 18.953125 -13.875 C 20.140625 -13.40625 21.179688 -12.644531 22.078125 -11.59375 C 22.972656 -10.550781 23.4375 -9.144531 23.46875 -7.375 C 23.46875 -5.894531 23.046875 -4.566406 22.203125 -3.390625 C 21.367188 -2.222656 20.171875 -1.304688 18.609375 -0.640625 C 17.046875 0.0234375 15.234375 0.359375 13.171875 0.359375 Z M 13.171875 0.359375 "/></g></g></g><g fill="#0f0147" fill-opacity="1"><g transform="translate(94.559989, 176.491735)"><g><path d="M 17 -6.609375 L 17 0 L 13.03125 0 C 10.207031 0 8.003906 -0.6875 6.421875 -2.0625 C 4.847656 -3.445312 4.0625 -5.707031 4.0625 -8.84375 L 4.0625 -18.953125 L 0.953125 -18.953125 L 0.953125 -25.421875 L 4.0625 -25.421875 L 4.0625 -31.625 L 11.84375 -31.625 L 11.84375 -25.421875 L 16.953125 -25.421875 L 16.953125 -18.953125 L 11.84375 -18.953125 L 11.84375 -8.75 C 11.84375 -7.988281 12.023438 -7.441406 12.390625 -7.109375 C 12.753906 -6.773438 13.363281 -6.609375 14.21875 -6.609375 Z M 17 -6.609375 "/></g></g></g><g fill="#0f0147" fill-opacity="1"><g transform="translate(113.969865, 176.491735)"><g><path d="M 14.390625 0.359375 C 11.898438 0.359375 9.660156 -0.171875 7.671875 -1.234375 C 5.679688 -2.296875 4.117188 -3.8125 2.984375 -5.78125 C 1.847656 -7.757812 1.28125 -10.070312 1.28125 -12.71875 C 1.28125 -15.320312 1.851562 -17.617188 3 -19.609375 C 4.15625 -21.597656 5.734375 -23.125 7.734375 -24.1875 C 9.742188 -25.25 11.992188 -25.78125 14.484375 -25.78125 C 16.972656 -25.78125 19.21875 -25.25 21.21875 -24.1875 C 23.226562 -23.125 24.8125 -21.597656 25.96875 -19.609375 C 27.125 -17.617188 27.703125 -15.320312 27.703125 -12.71875 C 27.703125 -10.101562 27.113281 -7.800781 25.9375 -5.8125 C 24.769531 -3.820312 23.175781 -2.296875 21.15625 -1.234375 C 19.144531 -0.171875 16.890625 0.359375 14.390625 0.359375 Z M 14.390625 -6.375 C 15.878906 -6.375 17.148438 -6.921875 18.203125 -8.015625 C 19.253906 -9.109375 19.78125 -10.675781 19.78125 -12.71875 C 19.78125 -14.75 19.269531 -16.3125 18.25 -17.40625 C 17.226562 -18.5 15.972656 -19.046875 14.484375 -19.046875 C 12.960938 -19.046875 11.703125 -18.503906 10.703125 -17.421875 C 9.703125 -16.347656 9.203125 -14.78125 9.203125 -12.71875 C 9.203125 -10.675781 9.695312 -9.109375 10.6875 -8.015625 C 11.675781 -6.921875 12.910156 -6.375 14.390625 -6.375 Z M 14.390625 -6.375 "/></g></g></g><g fill="#0f0147" fill-opacity="1"><g transform="translate(143.904688, 176.491735)"><g><path d="M 1.28125 -12.671875 C 1.28125 -15.191406 1.800781 -17.4375 2.84375 -19.40625 C 3.894531 -21.382812 5.304688 -22.925781 7.078125 -24.03125 C 8.859375 -25.144531 10.796875 -25.703125 12.890625 -25.703125 C 14.503906 -25.703125 15.945312 -25.421875 17.21875 -24.859375 C 18.5 -24.296875 19.535156 -23.515625 20.328125 -22.515625 L 20.328125 -25.421875 L 28.109375 -25.421875 L 28.109375 12.125 L 20.328125 12.125 L 20.328125 -3.1875 C 19.441406 -2.125 18.367188 -1.273438 17.109375 -0.640625 C 15.847656 -0.00390625 14.410156 0.3125 12.796875 0.3125 C 10.734375 0.3125 8.820312 -0.234375 7.0625 -1.328125 C 5.300781 -2.421875 3.894531 -3.953125 2.84375 -5.921875 C 1.800781 -7.898438 1.28125 -10.148438 1.28125 -12.671875 Z M 20.328125 -12.71875 C 20.328125 -14.082031 20.054688 -15.226562 19.515625 -16.15625 C 18.984375 -17.082031 18.289062 -17.78125 17.4375 -18.25 C 16.59375 -18.71875 15.703125 -18.953125 14.765625 -18.953125 C 13.847656 -18.953125 12.960938 -18.71875 12.109375 -18.25 C 11.265625 -17.78125 10.566406 -17.070312 10.015625 -16.125 C 9.472656 -15.1875 9.203125 -14.035156 9.203125 -12.671875 C 9.203125 -11.296875 9.472656 -10.144531 10.015625 -9.21875 C 10.566406 -8.300781 11.265625 -7.601562 12.109375 -7.125 C 12.960938 -6.65625 13.847656 -6.421875 14.765625 -6.421875 C 15.671875 -6.421875 16.554688 -6.65625 17.421875 -7.125 C 18.285156 -7.601562 18.984375 -8.3125 19.515625 -9.25 C 20.054688 -10.1875 20.328125 -11.34375 20.328125 -12.71875 Z M 20.328125 -12.71875 "/></g></g></g><g fill="#0f0147" fill-opacity="1"><g transform="translate(175.753145, 176.491735)"><g><path d="M 27.9375 -25.421875 L 27.9375 0 L 20.140625 0 L 20.140625 -3.46875 C 19.347656 -2.34375 18.273438 -1.4375 16.921875 -0.75 C 15.578125 -0.0703125 14.082031 0.265625 12.4375 0.265625 C 10.488281 0.265625 8.769531 -0.164062 7.28125 -1.03125 C 5.800781 -1.894531 4.648438 -3.144531 3.828125 -4.78125 C 3.003906 -6.425781 2.59375 -8.359375 2.59375 -10.578125 L 2.59375 -25.421875 L 10.34375 -25.421875 L 10.34375 -11.625 C 10.34375 -9.914062 10.78125 -8.585938 11.65625 -7.640625 C 12.539062 -6.703125 13.726562 -6.234375 15.21875 -6.234375 C 16.738281 -6.234375 17.9375 -6.703125 18.8125 -7.640625 C 19.695312 -8.585938 20.140625 -9.914062 20.140625 -11.625 L 20.140625 -25.421875 Z M 27.9375 -25.421875 "/></g></g></g><g fill="#0f0147" fill-opacity="1"><g transform="translate(207.373808, 176.491735)"><g><path d="M 26.796875 -13.125 C 26.796875 -12.394531 26.75 -11.632812 26.65625 -10.84375 L 9.015625 -10.84375 C 9.140625 -9.257812 9.648438 -8.050781 10.546875 -7.21875 C 11.441406 -6.382812 12.539062 -5.96875 13.84375 -5.96875 C 15.789062 -5.96875 17.144531 -6.785156 17.90625 -8.421875 L 26.203125 -8.421875 C 25.773438 -6.753906 25.003906 -5.25 23.890625 -3.90625 C 22.785156 -2.570312 21.394531 -1.523438 19.71875 -0.765625 C 18.050781 -0.015625 16.1875 0.359375 14.125 0.359375 C 11.632812 0.359375 9.414062 -0.171875 7.46875 -1.234375 C 5.53125 -2.296875 4.015625 -3.8125 2.921875 -5.78125 C 1.828125 -7.757812 1.28125 -10.070312 1.28125 -12.71875 C 1.28125 -15.351562 1.816406 -17.65625 2.890625 -19.625 C 3.972656 -21.601562 5.484375 -23.125 7.421875 -24.1875 C 9.367188 -25.25 11.601562 -25.78125 14.125 -25.78125 C 16.582031 -25.78125 18.769531 -25.265625 20.6875 -24.234375 C 22.601562 -23.203125 24.097656 -21.726562 25.171875 -19.8125 C 26.253906 -17.90625 26.796875 -15.675781 26.796875 -13.125 Z M 18.8125 -15.171875 C 18.8125 -16.503906 18.351562 -17.566406 17.4375 -18.359375 C 16.53125 -19.148438 15.394531 -19.546875 14.03125 -19.546875 C 12.726562 -19.546875 11.628906 -19.164062 10.734375 -18.40625 C 9.835938 -17.644531 9.28125 -16.566406 9.0625 -15.171875 Z M 18.8125 -15.171875 "/></g></g></g><g fill="#0f0147" fill-opacity="1"><g transform="translate(236.351831, 176.491735)"><g><path d="M 23.640625 -31.984375 L 23.640625 -25.75 L 10.609375 -25.75 L 10.609375 -19 L 20.359375 -19 L 20.359375 -12.9375 L 10.609375 -12.9375 L 10.609375 0 L 2.828125 0 L 2.828125 -31.984375 Z M 23.640625 -31.984375 "/></g></g></g><g fill="#0f0147" fill-opacity="1"><g transform="translate(262.18603, 176.491735)"><g><path d="M 10.609375 -33.71875 L 10.609375 0 L 2.828125 0 L 2.828125 -33.71875 Z M 10.609375 -33.71875 "/></g></g></g><g fill="#0f0147" fill-opacity="1"><g transform="translate(276.538461, 176.491735)"><g><path d="M 26.796875 -13.125 C 26.796875 -12.394531 26.75 -11.632812 26.65625 -10.84375 L 9.015625 -10.84375 C 9.140625 -9.257812 9.648438 -8.050781 10.546875 -7.21875 C 11.441406 -6.382812 12.539062 -5.96875 13.84375 -5.96875 C 15.789062 -5.96875 17.144531 -6.785156 17.90625 -8.421875 L 26.203125 -8.421875 C 25.773438 -6.753906 25.003906 -5.25 23.890625 -3.90625 C 22.785156 -2.570312 21.394531 -1.523438 19.71875 -0.765625 C 18.050781 -0.015625 16.1875 0.359375 14.125 0.359375 C 11.632812 0.359375 9.414062 -0.171875 7.46875 -1.234375 C 5.53125 -2.296875 4.015625 -3.8125 2.921875 -5.78125 C 1.828125 -7.757812 1.28125 -10.070312 1.28125 -12.71875 C 1.28125 -15.351562 1.816406 -17.65625 2.890625 -19.625 C 3.972656 -21.601562 5.484375 -23.125 7.421875 -24.1875 C 9.367188 -25.25 11.601562 -25.78125 14.125 -25.78125 C 16.582031 -25.78125 18.769531 -25.265625 20.6875 -24.234375 C 22.601562 -23.203125 24.097656 -21.726562 25.171875 -19.8125 C 26.253906 -17.90625 26.796875 -15.675781 26.796875 -13.125 Z M 18.8125 -15.171875 C 18.8125 -16.503906 18.351562 -17.566406 17.4375 -18.359375 C 16.53125 -19.148438 15.394531 -19.546875 14.03125 -19.546875 C 12.726562 -19.546875 11.628906 -19.164062 10.734375 -18.40625 C 9.835938 -17.644531 9.28125 -16.566406 9.0625 -15.171875 Z M 18.8125 -15.171875 "/></g></g></g><g fill="#0f0147" fill-opacity="1"><g transform="translate(305.516484, 176.491735)"><g><path d="M 17.859375 0 L 12.984375 -7.0625 L 8.890625 0 L 0.453125 0 L 8.84375 -12.984375 L 0.234375 -25.421875 L 8.96875 -25.421875 L 13.84375 -18.40625 L 17.953125 -25.421875 L 26.375 -25.421875 L 17.859375 -12.625 L 26.609375 0 Z M 17.859375 0 "/></g></g></g><g fill="#15488a" fill-opacity="1"><g transform="translate(32.010166, 214.138839)"><g><path d="M 12.21875 -7.640625 L 14.84375 -7.640625 L 14.84375 -1.6875 C 14.070312 -1.070312 13.171875 -0.597656 12.140625 -0.265625 C 11.117188 0.0546875 10.070312 0.21875 9 0.21875 C 7.46875 0.21875 6.085938 -0.109375 4.859375 -0.765625 C 3.640625 -1.429688 2.679688 -2.347656 1.984375 -3.515625 C 1.285156 -4.691406 0.9375 -6.007812 0.9375 -7.46875 C 0.9375 -8.9375 1.285156 -10.253906 1.984375 -11.421875 C 2.679688 -12.585938 3.644531 -13.503906 4.875 -14.171875 C 6.113281 -14.835938 7.5 -15.171875 9.03125 -15.171875 C 10.289062 -15.171875 11.429688 -14.960938 12.453125 -14.546875 C 13.472656 -14.128906 14.332031 -13.523438 15.03125 -12.734375 L 13.28125 -11.015625 C 12.144531 -12.160156 10.769531 -12.734375 9.15625 -12.734375 C 8.101562 -12.734375 7.164062 -12.507812 6.34375 -12.0625 C 5.53125 -11.625 4.890625 -11.003906 4.421875 -10.203125 C 3.960938 -9.410156 3.734375 -8.5 3.734375 -7.46875 C 3.734375 -6.476562 3.960938 -5.582031 4.421875 -4.78125 C 4.890625 -3.988281 5.53125 -3.363281 6.34375 -2.90625 C 7.164062 -2.445312 8.097656 -2.21875 9.140625 -2.21875 C 10.304688 -2.21875 11.332031 -2.472656 12.21875 -2.984375 Z M 12.21875 -7.640625 "/></g></g></g><g fill="#15488a" fill-opacity="1"><g transform="translate(52.7747, 214.138839)"><g><path d="M 13.21875 -2.328125 L 13.21875 0 L 2 0 L 2 -14.953125 L 12.921875 -14.953125 L 12.921875 -12.625 L 4.78125 -12.625 L 4.78125 -8.734375 L 12 -8.734375 L 12 -6.453125 L 4.78125 -6.453125 L 4.78125 -2.328125 Z M 13.21875 -2.328125 "/></g></g></g><g fill="#15488a" fill-opacity="1"><g transform="translate(71.360245, 214.138839)"><g><path d="M 6.640625 0.21875 C 5.484375 0.21875 4.367188 0.0546875 3.296875 -0.265625 C 2.222656 -0.597656 1.375 -1.035156 0.75 -1.578125 L 1.703125 -3.734375 C 2.316406 -3.253906 3.066406 -2.859375 3.953125 -2.546875 C 4.847656 -2.242188 5.742188 -2.09375 6.640625 -2.09375 C 7.753906 -2.09375 8.582031 -2.269531 9.125 -2.625 C 9.675781 -2.976562 9.953125 -3.445312 9.953125 -4.03125 C 9.953125 -4.457031 9.796875 -4.8125 9.484375 -5.09375 C 9.179688 -5.375 8.796875 -5.59375 8.328125 -5.75 C 7.859375 -5.90625 7.21875 -6.082031 6.40625 -6.28125 C 5.269531 -6.550781 4.347656 -6.820312 3.640625 -7.09375 C 2.929688 -7.363281 2.320312 -7.785156 1.8125 -8.359375 C 1.3125 -8.941406 1.0625 -9.722656 1.0625 -10.703125 C 1.0625 -11.523438 1.285156 -12.273438 1.734375 -12.953125 C 2.179688 -13.628906 2.859375 -14.164062 3.765625 -14.5625 C 4.671875 -14.96875 5.78125 -15.171875 7.09375 -15.171875 C 8 -15.171875 8.894531 -15.054688 9.78125 -14.828125 C 10.664062 -14.597656 11.425781 -14.269531 12.0625 -13.84375 L 11.1875 -11.6875 C 10.53125 -12.070312 9.847656 -12.363281 9.140625 -12.5625 C 8.429688 -12.757812 7.738281 -12.859375 7.0625 -12.859375 C 5.96875 -12.859375 5.15625 -12.671875 4.625 -12.296875 C 4.09375 -11.929688 3.828125 -11.441406 3.828125 -10.828125 C 3.828125 -10.398438 3.976562 -10.050781 4.28125 -9.78125 C 4.582031 -9.507812 4.96875 -9.296875 5.4375 -9.140625 C 5.914062 -8.984375 6.5625 -8.804688 7.375 -8.609375 C 8.476562 -8.347656 9.382812 -8.078125 10.09375 -7.796875 C 10.8125 -7.523438 11.421875 -7.101562 11.921875 -6.53125 C 12.429688 -5.96875 12.6875 -5.203125 12.6875 -4.234375 C 12.6875 -3.398438 12.460938 -2.648438 12.015625 -1.984375 C 11.566406 -1.316406 10.882812 -0.78125 9.96875 -0.375 C 9.0625 0.0195312 7.953125 0.21875 6.640625 0.21875 Z M 6.640625 0.21875 "/></g></g></g><g fill="#15488a" fill-opacity="1"><g transform="translate(89.069912, 214.138839)"><g><path d="M 5.046875 -12.609375 L 0.078125 -12.609375 L 0.078125 -14.953125 L 12.765625 -14.953125 L 12.765625 -12.609375 L 7.8125 -12.609375 L 7.8125 0 L 5.046875 0 Z M 5.046875 -12.609375 "/></g></g></g><g fill="#15488a" fill-opacity="1"><g transform="translate(106.202793, 214.138839)"><g><path d="M 11.703125 -3.453125 L 4.234375 -3.453125 L 2.75 0 L -0.109375 0 L 6.625 -14.953125 L 9.359375 -14.953125 L 16.109375 0 L 13.203125 0 Z M 10.78125 -5.640625 L 7.96875 -12.171875 L 5.171875 -5.640625 Z M 9.515625 -16.171875 C 9.160156 -16.171875 8.851562 -16.238281 8.59375 -16.375 C 8.332031 -16.519531 8.007812 -16.738281 7.625 -17.03125 C 7.394531 -17.207031 7.203125 -17.34375 7.046875 -17.4375 C 6.898438 -17.53125 6.753906 -17.578125 6.609375 -17.578125 C 6.316406 -17.578125 6.070312 -17.460938 5.875 -17.234375 C 5.6875 -17.003906 5.582031 -16.691406 5.5625 -16.296875 L 4.140625 -16.296875 C 4.148438 -17.160156 4.363281 -17.851562 4.78125 -18.375 C 5.207031 -18.894531 5.757812 -19.15625 6.4375 -19.15625 C 6.800781 -19.15625 7.113281 -19.082031 7.375 -18.9375 C 7.632812 -18.800781 7.957031 -18.59375 8.34375 -18.3125 C 8.570312 -18.125 8.757812 -17.984375 8.90625 -17.890625 C 9.0625 -17.796875 9.207031 -17.75 9.34375 -17.75 C 9.644531 -17.75 9.890625 -17.851562 10.078125 -18.0625 C 10.273438 -18.28125 10.378906 -18.582031 10.390625 -18.96875 L 11.828125 -18.96875 C 11.796875 -18.125 11.570312 -17.445312 11.15625 -16.9375 C 10.75 -16.425781 10.203125 -16.171875 9.515625 -16.171875 Z M 9.515625 -16.171875 "/></g></g></g><g fill="#15488a" fill-opacity="1"><g transform="translate(126.475977, 214.138839)"><g><path d="M 9 0.21875 C 7.46875 0.21875 6.085938 -0.109375 4.859375 -0.765625 C 3.640625 -1.429688 2.679688 -2.351562 1.984375 -3.53125 C 1.285156 -4.707031 0.9375 -6.019531 0.9375 -7.46875 C 0.9375 -8.925781 1.285156 -10.238281 1.984375 -11.40625 C 2.679688 -12.582031 3.640625 -13.503906 4.859375 -14.171875 C 6.085938 -14.835938 7.46875 -15.171875 9 -15.171875 C 10.519531 -15.171875 11.890625 -14.835938 13.109375 -14.171875 C 14.335938 -13.503906 15.300781 -12.585938 16 -11.421875 C 16.695312 -10.253906 17.046875 -8.9375 17.046875 -7.46875 C 17.046875 -6.007812 16.695312 -4.691406 16 -3.515625 C 15.300781 -2.347656 14.335938 -1.429688 13.109375 -0.765625 C 11.890625 -0.109375 10.519531 0.21875 9 0.21875 Z M 9 -2.21875 C 9.988281 -2.21875 10.878906 -2.441406 11.671875 -2.890625 C 12.472656 -3.335938 13.101562 -3.960938 13.5625 -4.765625 C 14.019531 -5.578125 14.25 -6.476562 14.25 -7.46875 C 14.25 -8.46875 14.019531 -9.367188 13.5625 -10.171875 C 13.101562 -10.984375 12.472656 -11.613281 11.671875 -12.0625 C 10.878906 -12.507812 9.988281 -12.734375 9 -12.734375 C 8 -12.734375 7.097656 -12.507812 6.296875 -12.0625 C 5.503906 -11.613281 4.878906 -10.984375 4.421875 -10.171875 C 3.960938 -9.367188 3.734375 -8.46875 3.734375 -7.46875 C 3.734375 -6.476562 3.960938 -5.578125 4.421875 -4.765625 C 4.878906 -3.960938 5.503906 -3.335938 6.296875 -2.890625 C 7.097656 -2.441406 8 -2.21875 9 -2.21875 Z M 9 -2.21875 "/></g></g></g><g fill="#15488a" fill-opacity="1"><g transform="translate(148.735894, 214.138839)"><g/></g></g><g fill="#15488a" fill-opacity="1"><g transform="translate(158.904529, 214.138839)"><g><path d="M 2 -14.953125 L 8.546875 -14.953125 C 10.140625 -14.953125 11.554688 -14.640625 12.796875 -14.015625 C 14.035156 -13.398438 14.992188 -12.523438 15.671875 -11.390625 C 16.359375 -10.265625 16.703125 -8.957031 16.703125 -7.46875 C 16.703125 -5.988281 16.359375 -4.679688 15.671875 -3.546875 C 14.992188 -2.421875 14.035156 -1.546875 12.796875 -0.921875 C 11.554688 -0.304688 10.140625 0 8.546875 0 L 2 0 Z M 8.421875 -2.34375 C 9.515625 -2.34375 10.476562 -2.550781 11.3125 -2.96875 C 12.144531 -3.394531 12.785156 -3.992188 13.234375 -4.765625 C 13.679688 -5.546875 13.90625 -6.445312 13.90625 -7.46875 C 13.90625 -8.5 13.679688 -9.398438 13.234375 -10.171875 C 12.785156 -10.953125 12.144531 -11.550781 11.3125 -11.96875 C 10.476562 -12.394531 9.515625 -12.609375 8.421875 -12.609375 L 4.78125 -12.609375 L 4.78125 -2.34375 Z M 8.421875 -2.34375 "/></g></g></g><g fill="#15488a" fill-opacity="1"><g transform="translate(180.822651, 214.138839)"><g><path d="M 13.21875 -2.328125 L 13.21875 0 L 2 0 L 2 -14.953125 L 12.921875 -14.953125 L 12.921875 -12.625 L 4.78125 -12.625 L 4.78125 -8.734375 L 12 -8.734375 L 12 -6.453125 L 4.78125 -6.453125 L 4.78125 -2.328125 Z M 13.21875 -2.328125 "/></g></g></g><g fill="#15488a" fill-opacity="1"><g transform="translate(199.408197, 214.138839)"><g/></g></g><g fill="#15488a" fill-opacity="1"><g transform="translate(209.576832, 214.138839)"><g><path d="M 13.21875 -2.328125 L 13.21875 0 L 2 0 L 2 -14.953125 L 12.921875 -14.953125 L 12.921875 -12.625 L 4.78125 -12.625 L 4.78125 -8.734375 L 12 -8.734375 L 12 -6.453125 L 4.78125 -6.453125 L 4.78125 -2.328125 Z M 13.21875 -2.328125 "/></g></g></g><g fill="#15488a" fill-opacity="1"><g transform="translate(228.162377, 214.138839)"><g><path d="M 6.640625 0.21875 C 5.484375 0.21875 4.367188 0.0546875 3.296875 -0.265625 C 2.222656 -0.597656 1.375 -1.035156 0.75 -1.578125 L 1.703125 -3.734375 C 2.316406 -3.253906 3.066406 -2.859375 3.953125 -2.546875 C 4.847656 -2.242188 5.742188 -2.09375 6.640625 -2.09375 C 7.753906 -2.09375 8.582031 -2.269531 9.125 -2.625 C 9.675781 -2.976562 9.953125 -3.445312 9.953125 -4.03125 C 9.953125 -4.457031 9.796875 -4.8125 9.484375 -5.09375 C 9.179688 -5.375 8.796875 -5.59375 8.328125 -5.75 C 7.859375 -5.90625 7.21875 -6.082031 6.40625 -6.28125 C 5.269531 -6.550781 4.347656 -6.820312 3.640625 -7.09375 C 2.929688 -7.363281 2.320312 -7.785156 1.8125 -8.359375 C 1.3125 -8.941406 1.0625 -9.722656 1.0625 -10.703125 C 1.0625 -11.523438 1.285156 -12.273438 1.734375 -12.953125 C 2.179688 -13.628906 2.859375 -14.164062 3.765625 -14.5625 C 4.671875 -14.96875 5.78125 -15.171875 7.09375 -15.171875 C 8 -15.171875 8.894531 -15.054688 9.78125 -14.828125 C 10.664062 -14.597656 11.425781 -14.269531 12.0625 -13.84375 L 11.1875 -11.6875 C 10.53125 -12.070312 9.847656 -12.363281 9.140625 -12.5625 C 8.429688 -12.757812 7.738281 -12.859375 7.0625 -12.859375 C 5.96875 -12.859375 5.15625 -12.671875 4.625 -12.296875 C 4.09375 -11.929688 3.828125 -11.441406 3.828125 -10.828125 C 3.828125 -10.398438 3.976562 -10.050781 4.28125 -9.78125 C 4.582031 -9.507812 4.96875 -9.296875 5.4375 -9.140625 C 5.914062 -8.984375 6.5625 -8.804688 7.375 -8.609375 C 8.476562 -8.347656 9.382812 -8.078125 10.09375 -7.796875 C 10.8125 -7.523438 11.421875 -7.101562 11.921875 -6.53125 C 12.429688 -5.96875 12.6875 -5.203125 12.6875 -4.234375 C 12.6875 -3.398438 12.460938 -2.648438 12.015625 -1.984375 C 11.566406 -1.316406 10.882812 -0.78125 9.96875 -0.375 C 9.0625 0.0195312 7.953125 0.21875 6.640625 0.21875 Z M 6.640625 0.21875 "/></g></g></g><g fill="#15488a" fill-opacity="1"><g transform="translate(245.872044, 214.138839)"><g><path d="M 5.046875 -12.609375 L 0.078125 -12.609375 L 0.078125 -14.953125 L 12.765625 -14.953125 L 12.765625 -12.609375 L 7.8125 -12.609375 L 7.8125 0 L 5.046875 0 Z M 5.046875 -12.609375 "/></g></g></g><g fill="#15488a" fill-opacity="1"><g transform="translate(263.004925, 214.138839)"><g><path d="M 9 0.21875 C 7.46875 0.21875 6.085938 -0.109375 4.859375 -0.765625 C 3.640625 -1.429688 2.679688 -2.351562 1.984375 -3.53125 C 1.285156 -4.707031 0.9375 -6.019531 0.9375 -7.46875 C 0.9375 -8.925781 1.285156 -10.238281 1.984375 -11.40625 C 2.679688 -12.582031 3.640625 -13.503906 4.859375 -14.171875 C 6.085938 -14.835938 7.46875 -15.171875 9 -15.171875 C 10.519531 -15.171875 11.890625 -14.835938 13.109375 -14.171875 C 14.335938 -13.503906 15.300781 -12.585938 16 -11.421875 C 16.695312 -10.253906 17.046875 -8.9375 17.046875 -7.46875 C 17.046875 -6.007812 16.695312 -4.691406 16 -3.515625 C 15.300781 -2.347656 14.335938 -1.429688 13.109375 -0.765625 C 11.890625 -0.109375 10.519531 0.21875 9 0.21875 Z M 9 -2.21875 C 9.988281 -2.21875 10.878906 -2.441406 11.671875 -2.890625 C 12.472656 -3.335938 13.101562 -3.960938 13.5625 -4.765625 C 14.019531 -5.578125 14.25 -6.476562 14.25 -7.46875 C 14.25 -8.46875 14.019531 -9.367188 13.5625 -10.171875 C 13.101562 -10.984375 12.472656 -11.613281 11.671875 -12.0625 C 10.878906 -12.507812 9.988281 -12.734375 9 -12.734375 C 8 -12.734375 7.097656 -12.507812 6.296875 -12.0625 C 5.503906 -11.613281 4.878906 -10.984375 4.421875 -10.171875 C 3.960938 -9.367188 3.734375 -8.46875 3.734375 -7.46875 C 3.734375 -6.476562 3.960938 -5.578125 4.421875 -4.765625 C 4.878906 -3.960938 5.503906 -3.335938 6.296875 -2.890625 C 7.097656 -2.441406 8 -2.21875 9 -2.21875 Z M 9 -2.21875 "/></g></g></g><g fill="#15488a" fill-opacity="1"><g transform="translate(285.264842, 214.138839)"><g><path d="M 17.796875 1.5 C 17.296875 2.082031 16.710938 2.519531 16.046875 2.8125 C 15.390625 3.113281 14.671875 3.265625 13.890625 3.265625 C 12.859375 3.265625 11.914062 3.03125 11.0625 2.5625 C 10.207031 2.101562 9.234375 1.304688 8.140625 0.171875 C 6.753906 0.0546875 5.515625 -0.34375 4.421875 -1.03125 C 3.328125 -1.726562 2.472656 -2.632812 1.859375 -3.75 C 1.242188 -4.863281 0.9375 -6.101562 0.9375 -7.46875 C 0.9375 -8.925781 1.285156 -10.238281 1.984375 -11.40625 C 2.679688 -12.582031 3.640625 -13.503906 4.859375 -14.171875 C 6.085938 -14.835938 7.46875 -15.171875 9 -15.171875 C 10.519531 -15.171875 11.890625 -14.835938 13.109375 -14.171875 C 14.335938 -13.503906 15.300781 -12.585938 16 -11.421875 C 16.695312 -10.253906 17.046875 -8.9375 17.046875 -7.46875 C 17.046875 -6.289062 16.8125 -5.195312 16.34375 -4.1875 C 15.875 -3.1875 15.21875 -2.332031 14.375 -1.625 C 13.53125 -0.925781 12.554688 -0.421875 11.453125 -0.109375 C 11.859375 0.335938 12.257812 0.660156 12.65625 0.859375 C 13.0625 1.054688 13.492188 1.15625 13.953125 1.15625 C 14.929688 1.15625 15.785156 0.753906 16.515625 -0.046875 Z M 3.734375 -7.46875 C 3.734375 -6.476562 3.960938 -5.578125 4.421875 -4.765625 C 4.878906 -3.960938 5.503906 -3.335938 6.296875 -2.890625 C 7.097656 -2.441406 8 -2.21875 9 -2.21875 C 9.988281 -2.21875 10.878906 -2.441406 11.671875 -2.890625 C 12.472656 -3.335938 13.101562 -3.960938 13.5625 -4.765625 C 14.019531 -5.578125 14.25 -6.476562 14.25 -7.46875 C 14.25 -8.46875 14.019531 -9.367188 13.5625 -10.171875 C 13.101562 -10.984375 12.472656 -11.613281 11.671875 -12.0625 C 10.878906 -12.507812 9.988281 -12.734375 9 -12.734375 C 8 -12.734375 7.097656 -12.507812 6.296875 -12.0625 C 5.503906 -11.613281 4.878906 -10.984375 4.421875 -10.171875 C 3.960938 -9.367188 3.734375 -8.46875 3.734375 -7.46875 Z M 3.734375 -7.46875 "/></g></g></g><g fill="#15488a" fill-opacity="1"><g transform="translate(307.524759, 214.138839)"><g><path d="M 8.4375 0.21875 C 6.375 0.21875 4.765625 -0.359375 3.609375 -1.515625 C 2.453125 -2.679688 1.875 -4.347656 1.875 -6.515625 L 1.875 -14.953125 L 4.65625 -14.953125 L 4.65625 -6.625 C 4.65625 -3.6875 5.921875 -2.21875 8.453125 -2.21875 C 10.972656 -2.21875 12.234375 -3.6875 12.234375 -6.625 L 12.234375 -14.953125 L 14.96875 -14.953125 L 14.96875 -6.515625 C 14.96875 -4.347656 14.394531 -2.679688 13.25 -1.515625 C 12.101562 -0.359375 10.5 0.21875 8.4375 0.21875 Z M 8.4375 0.21875 "/></g></g></g><g fill="#15488a" fill-opacity="1"><g transform="translate(328.652438, 214.138839)"><g><path d="M 13.21875 -2.328125 L 13.21875 0 L 2 0 L 2 -14.953125 L 12.921875 -14.953125 L 12.921875 -12.625 L 4.78125 -12.625 L 4.78125 -8.734375 L 12 -8.734375 L 12 -6.453125 L 4.78125 -6.453125 L 4.78125 -2.328125 Z M 13.21875 -2.328125 "/></g></g></g></svg>